<?xml version="1.0" standalone="no"?>
<!DOCTYPE svg PUBLIC "-//W3C//DTD SVG 20010904//EN"
 "http://www.w3.org/TR/2001/REC-SVG-20010904/DTD/svg10.dtd">
<svg version="1.0" xmlns="http://www.w3.org/2000/svg"
 width="971.000000pt" height="1024.000000pt" viewBox="0 0 971.000000 1024.000000"
 preserveAspectRatio="xMidYMid meet">

<g transform="translate(0.000000,1024.000000) scale(0.100000,-0.100000)"
fill="#000000" stroke="none">
<path d="M4719 8872 c-285 -191 -516 -357 -593 -425 l-48 -42 -34 -170 c-89
-438 -137 -742 -154 -965 -5 -74 -10 -140 -10 -147 0 -8 32 -13 105 -15 113
-3 115 -2 115 52 0 58 43 278 77 389 42 140 113 294 183 395 106 154 328 338
553 461 l68 37 76 -37 c204 -101 445 -304 546 -460 73 -113 195 -366 222 -462
29 -98 75 -317 75 -355 0 -23 1 -24 100 -23 l100 0 -5 40 c-3 22 -12 98 -21
170 -14 122 -14 130 2 142 28 21 41 16 124 -42 43 -30 81 -55 86 -55 4 0 43
21 87 47 l80 46 -6 81 c-3 52 -10 84 -19 89 -7 4 -40 24 -73 43 -52 31 -63 34
-80 23 -63 -40 -122 -68 -136 -64 -13 5 -15 -5 -15 -61 l1 -67 -64 -34 -65
-33 -83 55 c-46 31 -87 63 -90 71 -11 30 13 56 92 98 l80 43 -2 56 c-3 91 -83
529 -114 625 -11 34 -92 103 -305 264 -94 71 -457 322 -550 381 l-42 26 -263
-177z"/>
<path d="M3453 8234 l-83 -54 0 -88 c0 -103 -3 -98 113 -161 l79 -41 61 36
c100 60 97 54 97 163 0 81 -3 98 -17 107 -10 6 -52 29 -93 51 l-75 41 -82 -54z
m68 9 c-38 -34 -39 -43 -3 -43 35 0 45 -9 31 -27 -7 -7 -12 -31 -12 -53 0 -22
-4 -37 -8 -34 -5 3 -8 -3 -7 -13 0 -10 0 -30 0 -46 l-2 -27 -40 20 c-37 19
-40 24 -40 61 0 32 -4 41 -22 48 -13 5 -26 7 -30 4 -16 -9 -7 35 10 49 21 20
134 87 146 88 4 0 -6 -12 -23 -27z"/>
<path d="M6667 8127 l73 -42 0 -88 c0 -56 -4 -86 -10 -82 -5 3 -10 1 -10 -4 0
-6 -9 -11 -21 -11 -11 0 -17 -4 -14 -10 3 -5 1 -11 -4 -11 -6 -1 -14 -3 -18
-4 -5 -2 -18 -6 -30 -10 -13 -4 -23 -11 -23 -15 0 -5 -3 -15 -6 -24 -3 -9 27
4 75 32 l81 47 -2 89 -3 89 -70 44 c-38 23 -74 43 -80 43 -5 0 23 -19 62 -43z"/>
<path d="M7205 8040 c-9 -15 4 -30 26 -30 12 0 19 7 19 20 0 21 -33 29 -45 10z"/>
<path d="M2944 7855 c-9 -23 3 -45 26 -45 25 0 37 25 20 45 -16 19 -39 19 -46
0z"/>
<path d="M7013 7844 c-4 -11 1 -22 13 -31 16 -12 20 -11 32 4 16 23 11 37 -16
41 -14 2 -25 -3 -29 -14z"/>
<path d="M3094 7838 c-8 -12 24 -40 37 -32 5 3 9 14 9 25 0 21 -34 27 -46 7z"/>
<path d="M3780 7586 c-14 -6 -42 -22 -62 -36 l-38 -25 0 -84 c0 -70 -2 -82
-15 -77 -21 8 -19 -1 3 -13 15 -8 36 -1 93 29 41 22 81 40 89 40 30 1 38 16
45 84 7 66 7 68 -13 62 -20 -7 -60 7 -72 24 -3 4 -16 2 -30 -4z"/>
<path d="M2375 7307 c-321 -165 -462 -242 -488 -266 -21 -21 -33 -118 -42
-361 l-7 -165 37 -104 c68 -195 179 -387 333 -581 94 -117 345 -370 512 -515
69 -59 126 -111 127 -114 4 -9 -101 -125 -352 -391 -333 -353 -476 -516 -474
-538 0 -4 10 6 22 22 48 64 101 121 110 118 4 -1 6 1 3 6 -3 5 5 19 18 31 17
16 23 18 23 7 0 -8 -4 -13 -9 -10 -9 6 -11 -27 -2 -51 6 -14 12 -11 40 16 l34
33 0 -61 c0 -34 -4 -63 -10 -65 -25 -8 -5 -158 21 -158 15 0 10 -90 -5 -106
-16 -16 -11 -84 7 -96 7 -4 6 -25 -5 -62 -13 -46 -13 -56 -2 -56 11 0 11 -5 2
-27 -7 -16 -18 -35 -25 -44 -18 -21 -16 -49 2 -49 10 0 16 -12 17 -37 2 -35 5
-84 7 -108 1 -15 44 -13 59 2 8 7 18 11 23 8 5 -4 9 -2 9 2 0 5 10 9 21 10 21
2 21 1 3 -10 -50 -33 -444 -217 -477 -224 -38 -8 -32 -11 355 -207 l393 -199
171 86 c365 183 706 387 954 571 41 31 78 56 82 56 10 0 14 -38 28 -215 6 -82
13 -157 16 -166 4 -14 15 -16 69 -12 49 4 67 2 79 -10 9 -9 16 -20 16 -25 0
-12 55 -23 75 -16 10 4 15 0 15 -10 0 -9 -8 -16 -20 -16 -16 0 -20 -7 -20 -32
0 -50 -9 -73 -32 -83 -12 -6 -28 -20 -36 -33 l-15 -24 39 8 c21 3 36 4 33 0
-13 -14 -134 -37 -216 -41 l-83 -5 2 27 c1 16 1 65 0 111 -2 76 -4 82 -23 82
-11 0 -34 -9 -50 -20 -15 -12 -42 -26 -59 -31 l-30 -11 0 -88 c0 -62 -4 -90
-12 -92 -8 -3 -4 -9 10 -17 18 -9 31 -9 68 4 25 8 79 19 120 23 l74 8 5 -30
c2 -17 9 -71 15 -121 12 -104 58 -359 94 -523 l24 -113 64 -67 c199 -208 360
-332 714 -546 l162 -98 83 53 c155 96 413 271 499 337 85 65 294 263 310 293
27 48 180 731 180 802 0 24 -4 27 -32 27 -18 1 -63 7 -101 14 l-67 13 -11 -41
c-16 -61 -81 -195 -134 -278 -109 -168 -245 -303 -410 -405 -93 -58 -324 -175
-334 -169 -217 122 -282 160 -356 210 -122 83 -268 229 -343 344 -59 92 -137
252 -148 308 -5 29 -5 29 68 48 232 59 464 152 673 272 171 98 163 92 145 104
-12 8 -12 10 5 10 11 0 54 20 95 43 41 24 131 76 200 116 149 86 173 108 205
186 17 44 32 65 57 79 18 11 99 64 180 117 81 54 150 94 152 91 2 -4 7 -37 10
-73 8 -74 6 -72 139 -133 l78 -35 -6 77 c-3 42 -11 135 -17 206 l-11 128 89
85 c72 68 126 106 284 200 107 63 206 125 219 137 23 21 23 23 18 166 -4 98
-17 216 -42 363 -20 120 -35 223 -33 228 3 8 175 -175 212 -226 11 -15 21 -11
98 43 l86 60 50 -50 50 -51 309 309 c438 437 557 600 624 859 23 85 24 107 24
375 -1 157 -4 297 -8 312 -9 34 -76 72 -456 263 l-294 146 -206 -81 c-242 -97
-609 -279 -719 -358 -95 -68 -182 -141 -182 -153 0 -5 -16 -33 -35 -61 -20
-28 -34 -52 -32 -54 2 -2 62 14 134 35 232 70 274 76 513 76 225 -1 313 -11
463 -56 68 -20 69 -21 94 -76 65 -142 105 -371 85 -496 -25 -163 -110 -365
-221 -531 -56 -83 -198 -263 -224 -285 -15 -12 -32 1 -149 114 l-133 127 -5
121 -5 121 -31 21 c-17 11 -136 55 -265 99 l-235 79 -29 51 c-15 28 -44 73
-63 99 l-34 48 26 127 c25 127 46 303 46 394 l0 48 -82 0 c-134 0 -124 12
-132 -158 -7 -161 -15 -232 -26 -232 -4 0 -32 21 -62 48 -230 199 -310 263
-323 258 -9 -3 -39 23 -82 72 -89 102 -333 345 -340 338 -4 -3 13 -22 35 -42
23 -20 39 -41 35 -47 -3 -6 -1 -7 5 -3 8 4 16 -3 22 -18 5 -14 12 -26 15 -26
4 0 3 5 0 10 -3 6 -2 10 3 10 6 0 12 -7 16 -15 3 -8 0 -15 -7 -15 -7 0 -14
-10 -14 -22 -2 -28 62 -98 89 -98 23 0 36 -29 18 -40 -17 -11 -15 -54 4 -110
20 -57 20 -90 2 -90 -11 0 -16 -14 -18 -47 l-3 -48 -23 23 c-12 12 -26 20 -31
18 -4 -3 -17 1 -27 9 -28 21 -35 18 -22 -10 6 -14 15 -25 20 -25 4 0 8 -7 8
-15 0 -19 -3 -19 -53 7 -89 47 -171 75 -197 68 -30 -8 -102 14 -328 99 -89 33
-167 61 -172 61 -4 0 -84 -76 -176 -170 -92 -93 -170 -170 -174 -170 -10 0
-18 78 -26 243 l-7 137 -99 0 -98 0 0 -34 0 -34 -67 67 c-69 68 -203 174 -264
209 -19 10 -74 43 -124 72 -216 129 -605 295 -714 306 -43 4 -63 -4 -326 -139z
m2877 -317 c11 0 17 -4 14 -9 -4 -5 0 -12 6 -15 7 -3 2 -3 -11 0 -34 9 -60 34
-53 52 4 13 7 11 15 -6 6 -12 19 -22 29 -22z m-1770 -145 c135 -18 206 -35
313 -78 l80 -32 6 -105 c7 -116 22 -208 45 -272 l14 -41 -73 -76 c-40 -42 -89
-95 -108 -119 -32 -40 -44 -46 -135 -73 -237 -69 -344 -124 -344 -175 0 -15 4
-12 18 11 11 17 25 36 34 42 20 17 149 65 156 58 3 -3 0 -5 -7 -5 -8 0 -10 -8
-5 -22 9 -32 9 -32 54 -14 53 21 70 20 70 -4 0 -13 -7 -20 -19 -20 -17 0 -20
-9 -23 -80 -2 -44 0 -80 5 -80 4 0 7 -18 7 -40 0 -22 5 -40 10 -40 6 0 10 -9
10 -20 0 -11 4 -20 9 -20 5 0 7 -9 4 -20 -3 -11 -9 -20 -14 -20 -5 0 -8 -5 -6
-12 1 -6 -20 -27 -48 -45 -27 -18 -72 -49 -98 -68 -27 -20 -53 -33 -58 -29
-30 18 -104 219 -92 250 7 18 -191 -186 -241 -248 -36 -46 -39 -47 -61 -32
-32 21 -201 212 -252 286 -105 150 -183 346 -210 525 -13 90 -14 126 -5 215
14 132 61 284 101 322 78 75 565 120 863 81z m2015 -177 c-3 -8 -6 -5 -6 6 -1
11 2 17 5 13 3 -3 4 -12 1 -19z m-359 -92 c152 -76 367 -198 390 -220 7 -7 17
-40 22 -73 12 -75 33 -127 71 -174 16 -20 29 -45 29 -55 0 -30 -43 -114 -93
-181 -47 -63 -170 -173 -194 -173 -9 0 -13 16 -13 53 0 39 -5 58 -17 69 -10 8
-89 56 -176 107 l-157 92 -118 -69 c-64 -38 -138 -81 -165 -96 -26 -15 -55
-39 -64 -54 -9 -15 -18 -29 -19 -30 -1 -2 -34 13 -72 33 -87 45 -178 126 -239
212 l-47 66 19 31 c20 33 45 83 89 177 15 31 36 69 48 84 23 29 505 275 539
275 11 0 86 -33 167 -74z m-882 -578 c15 -24 61 -77 103 -118 59 -59 98 -87
174 -125 l97 -50 0 -126 c0 -113 2 -129 21 -153 19 -24 101 -81 286 -198 l61
-39 149 97 c211 137 203 128 203 238 l0 91 49 28 c114 64 234 196 281 310 l23
56 50 -42 c27 -23 113 -85 191 -138 l141 -96 51 -124 c71 -172 140 -325 170
-376 l25 -43 -40 -52 c-21 -29 -56 -87 -76 -128 -47 -94 -132 -225 -181 -280
-25 -28 -71 -59 -137 -92 l-99 -49 -34 40 c-45 52 -167 150 -238 190 -31 18
-56 36 -56 39 0 4 25 22 55 40 30 18 68 44 85 58 30 26 30 27 30 128 0 94 -2
104 -22 123 -28 25 -174 123 -184 123 -16 0 -183 -112 -188 -126 -3 -9 -6 -61
-6 -117 0 -88 3 -104 20 -122 l21 -22 -119 -72 c-65 -39 -129 -71 -142 -71
-24 0 -153 70 -224 122 l-39 28 2 119 2 119 -33 25 c-18 14 -63 41 -100 62
-65 35 -68 36 -97 20 -17 -8 -31 -18 -31 -21 0 -2 14 3 31 11 32 17 40 15 82
-27 10 -10 23 -15 29 -12 6 4 8 3 5 -3 -4 -6 5 -21 18 -33 14 -13 25 -26 25
-29 0 -4 -27 -24 -59 -46 -66 -45 -71 -58 -71 -198 0 -65 -1 -69 -17 -56 -17
13 -17 12 0 -7 17 -21 16 -22 -40 -59 -80 -53 -164 -141 -214 -225 l-42 -71
28 -29 28 -30 23 55 c37 92 122 188 222 252 52 34 53 35 38 58 -15 23 -15 24
43 59 67 41 73 42 92 20 16 -19 52 -43 198 -130 l103 -62 82 50 c44 28 116 73
159 100 l79 48 59 -32 c38 -21 55 -36 49 -42 -20 -20 -8 -37 58 -80 82 -52
180 -135 211 -177 l23 -31 -34 -28 c-43 -36 -99 -138 -113 -208 l-11 -53 -79
-33 c-90 -37 -372 -177 -454 -225 l-54 -32 -206 105 c-201 102 -371 179 -378
172 -12 -12 73 -417 99 -476 22 -50 68 -102 113 -129 17 -10 77 -44 134 -76
l103 -57 -128 -49 c-154 -58 -327 -110 -484 -144 -63 -14 -126 -27 -140 -30
-15 -4 -20 -2 -12 3 10 7 9 34 -3 138 -16 144 -22 339 -16 519 l5 120 -87 84
c-48 47 -89 82 -91 80 -8 -8 -25 -164 -32 -298 l-7 -131 -101 -31 c-409 -126
-645 -145 -1029 -79 -60 10 -110 20 -111 22 -2 1 -21 44 -44 93 -64 141 -75
192 -69 309 5 113 37 216 110 361 104 208 376 569 601 798 85 86 113 105 101
68 -10 -32 -35 -220 -41 -311 -6 -98 17 -304 41 -349 20 -40 40 -53 259 -166
137 -71 187 -93 182 -79 -18 43 -79 295 -73 300 3 3 45 -1 94 -9 48 -8 90 -13
91 -12 5 5 -71 180 -121 282 -22 45 -60 106 -84 135 -23 29 -42 55 -40 58 25
43 115 244 142 318 90 243 82 229 186 313 52 42 130 108 174 147 44 39 83 71
87 71 4 1 20 -18 34 -41z m-682 14 c2 -4 -7 -8 -22 -9 -24 -2 -24 -1 -7 7 11
5 21 9 22 9 1 1 4 -3 7 -7z m60 -401 c3 -5 -1 -11 -9 -15 -9 -3 -15 0 -15 9 0
16 16 20 24 6z"/>
<path d="M3120 6406 c0 -2 7 -7 16 -10 8 -3 12 -2 9 4 -6 10 -25 14 -25 6z"/>
<path d="M3184 6368 l29 -25 -59 -36 c-32 -20 -65 -40 -73 -45 -11 -6 -15 -34
-17 -104 l-2 -96 67 39 c108 64 102 54 99 160 l-3 93 -35 19 -35 19 29 -24z
m-64 -124 c0 -2 -9 -4 -20 -4 -11 0 -20 4 -20 9 0 5 9 7 20 4 11 -3 20 -7 20
-9z"/>
<path d="M4480 4916 c0 -3 9 -10 20 -16 11 -6 20 -8 20 -6 0 3 -9 10 -20 16
-11 6 -20 8 -20 6z"/>
<path d="M3116 4512 c-2 -4 -34 -23 -70 -42 -36 -18 -64 -35 -62 -38 3 -2 12
0 22 6 21 12 56 4 47 -12 -3 -6 3 -3 14 7 11 9 25 17 31 17 16 0 30 -31 26
-57 -2 -12 1 -25 6 -28 6 -3 10 -54 10 -115 l0 -109 63 39 c117 74 115 72 108
170 l-6 85 -79 42 c-80 43 -101 50 -110 35z m-36 -52 c0 -5 -8 -10 -17 -10
-15 0 -16 2 -3 10 19 12 20 12 20 0z"/>
<path d="M8752 7418 c-18 -18 -15 -53 6 -71 24 -22 45 -21 65 1 34 37 15 82
-33 82 -14 0 -31 -5 -38 -12z"/>
<path d="M4857 7155 c-70 -47 -127 -87 -127 -90 0 -3 59 34 131 82 120 80 132
86 152 73 20 -12 21 -12 8 3 -7 10 -19 17 -25 17 -6 0 -68 -38 -139 -85z"/>
<path d="M4690 7039 c-14 -12 -34 -27 -44 -35 -11 -7 -18 -16 -15 -18 2 -2 24
13 49 35 46 39 55 55 10 18z"/>
<path d="M4200 6855 c117 -15 163 -17 110 -4 -19 4 -75 10 -125 13 l-90 5 105
-14z"/>
<path d="M4360 6836 c0 -2 11 -6 25 -8 13 -3 22 -1 19 3 -5 9 -44 13 -44 5z"/>
<path d="M8626 6604 c-22 -22 -20 -37 11 -65 14 -13 23 -18 19 -11 -4 6 -3 12
3 12 17 0 25 49 11 65 -16 19 -25 19 -44 -1z"/>
<path d="M6730 6404 c-36 -18 -61 -33 -57 -34 4 0 22 7 40 16 17 10 45 17 61
16 33 -1 75 -39 68 -61 -3 -9 0 -12 9 -9 10 4 15 -1 15 -14 0 -13 -16 -29 -43
-45 -42 -24 -43 -26 -45 -81 -1 -32 -1 -69 0 -84 2 -34 -6 -35 -52 -7 -52 30
-44 16 10 -19 l46 -31 84 52 84 52 0 51 c0 28 -3 72 -6 98 -6 43 -10 48 -68
84 -33 21 -65 41 -71 44 -5 3 -39 -9 -75 -28z"/>
<path d="M6634 6356 c-10 -8 -17 -16 -14 -19 3 -2 14 4 24 14 23 22 18 25 -10
5z"/>
<path d="M1480 6270 c-11 -11 -20 -29 -20 -40 0 -23 33 -60 55 -60 23 0 55 37
55 63 0 27 -28 57 -53 57 -9 0 -26 -9 -37 -20z"/>
<path d="M6618 6188 c-6 -15 6 -31 42 -53 9 -6 6 -1 -6 10 -12 11 -24 29 -26
40 -3 17 -5 18 -10 3z"/>
<path d="M8613 6163 c-16 -6 -17 -45 -1 -61 32 -32 80 8 58 48 -10 19 -31 24
-57 13z"/>
<path d="M1179 5804 c-9 -11 -10 -20 -2 -32 13 -22 43 -28 54 -10 12 18 11 24
-7 42 -19 20 -28 20 -45 0z"/>
<path d="M1958 5757 c8 -9 9 -24 2 -45 -10 -36 3 -43 20 -12 13 25 5 56 -17
64 -12 5 -13 4 -5 -7z"/>
<path d="M1218 5733 c7 -3 16 -2 19 1 4 3 -2 6 -13 5 -11 0 -14 -3 -6 -6z"/>
<path d="M8144 5714 c-18 -14 -18 -15 3 -4 18 8 30 7 50 -4 16 -8 27 -18 26
-23 -1 -4 5 -7 13 -7 9 1 14 -7 14 -23 0 -23 2 -24 18 -12 13 10 12 8 -3 -9
-11 -13 -31 -31 -46 -39 -23 -14 -28 -25 -36 -94 -5 -44 -7 -79 -5 -79 1 0 31
16 66 36 l63 37 7 74 c4 40 4 78 1 82 -6 11 -130 81 -142 81 -5 0 -18 -7 -29
-16z"/>
<path d="M1922 5589 c25 -9 27 -14 23 -54 -2 -24 -9 -54 -16 -67 -7 -12 -12
-26 -11 -30 4 -15 -52 -8 -71 10 -19 17 -20 16 -8 -6 7 -13 22 -27 35 -32 48
-18 140 -90 115 -90 -7 0 -10 -3 -6 -6 3 -3 19 2 36 12 17 10 32 16 35 13 2
-2 5 -24 6 -49 4 -100 2 -110 -36 -146 -20 -19 -45 -34 -56 -34 -11 0 -16 -4
-13 -10 9 -15 -12 -12 -28 5 -13 12 -15 11 -19 -15 -6 -40 9 -39 75 4 88 56
95 73 89 208 -2 45 -3 47 -57 77 -30 17 -55 34 -55 37 0 3 11 15 25 26 40 31
35 87 -10 127 -20 17 -46 31 -58 30 -20 -1 -19 -2 5 -10z"/>
<path d="M1839 5563 c-13 -16 -12 -17 4 -4 9 7 17 15 17 17 0 8 -8 3 -21 -13z"/>
<path d="M1252 5531 c-18 -11 -12 -41 10 -55 24 -15 53 13 43 43 -7 22 -30 27
-53 12z"/>
<path d="M2339 5247 c3 -35 0 -44 -25 -64 -20 -15 -24 -23 -13 -23 43 0 79 91
46 118 -10 8 -12 2 -8 -31z"/>
<path d="M8484 5274 c3 -9 6 -18 6 -20 0 -2 7 -4 15 -4 8 0 15 9 15 20 0 14
-7 20 -21 20 -15 0 -19 -4 -15 -16z"/>
<path d="M1568 5269 c17 -18 15 -54 -3 -69 -21 -17 -12 -24 13 -11 38 20 35
70 -5 85 -14 6 -16 5 -5 -5z"/>
<path d="M7741 5143 c-1 -6 -4 -20 -7 -30 -5 -17 -5 -17 6 0 6 10 9 23 6 30
-3 9 -5 9 -5 0z"/>
<path d="M1990 5075 c-11 -13 -8 -15 14 -15 16 0 26 5 26 15 0 8 -6 15 -14 15
-7 0 -19 -7 -26 -15z"/>
<path d="M8270 5052 c0 -4 -29 -24 -65 -43 l-65 -34 0 -92 c0 -50 -3 -98 -6
-106 -3 -10 22 -2 75 24 l81 40 0 110 c0 66 -4 109 -10 109 -5 0 -10 -4 -10
-8z"/>
<path d="M7291 5013 c7 -12 15 -20 18 -17 3 2 -3 12 -13 22 -17 16 -18 16 -5
-5z"/>
<path d="M1958 4951 c2 -15 -3 -42 -12 -60 -20 -38 -5 -41 29 -6 29 28 31 42
9 73 -21 30 -31 28 -26 -7z"/>
<path d="M7330 4976 c0 -2 8 -10 18 -17 15 -13 16 -12 3 4 -13 16 -21 21 -21
13z"/>
<path d="M7476 4820 c182 -188 278 -291 288 -307 4 -8 17 -24 27 -34 10 -10
16 -25 13 -33 -3 -8 5 -21 18 -30 22 -16 22 -16 1 -16 -12 0 -24 6 -26 13 -3
6 -6 -1 -6 -16 -1 -29 19 -44 41 -31 25 16 39 13 33 -7 -4 -10 -2 -19 3 -19 6
0 13 -7 16 -16 3 -8 2 -12 -3 -9 -18 11 -22 -15 -6 -45 8 -16 13 -30 10 -30
-3 0 9 -28 28 -62 32 -59 51 -108 93 -248 9 -30 22 -98 27 -150 13 -114 11
-330 -3 -344 -6 -6 -10 -22 -10 -37 0 -24 -11 -32 -116 -85 -132 -67 -151 -84
-85 -75 7 2 10 -2 6 -8 -3 -6 -12 -11 -19 -11 -8 0 -19 -7 -26 -15 -7 -8 -16
-13 -20 -10 -4 3 -10 -2 -14 -10 -3 -8 -14 -15 -24 -15 -10 0 -29 -10 -42 -22
-14 -13 -27 -22 -30 -22 -8 2 -34 -9 -40 -16 -3 -3 -30 -16 -60 -29 -114 -48
-210 -94 -206 -99 6 -6 329 138 566 253 l195 94 8 88 c12 124 2 383 -18 473
-31 143 -77 259 -146 375 -104 176 -168 254 -384 470 -110 111 -150 149 -89
85z m450 -577 c-7 -7 -26 7 -26 19 0 6 6 6 15 -2 9 -7 13 -15 11 -17z m134
-893 c0 -5 -5 -10 -11 -10 -5 0 -7 5 -4 10 3 6 8 10 11 10 2 0 4 -4 4 -10z"/>
<path d="M7746 4835 c10 -25 -5 -63 -27 -70 -11 -4 -19 -9 -16 -11 2 -3 16 0
31 5 21 9 26 17 26 45 0 19 -4 38 -10 41 -6 3 -7 -1 -4 -10z"/>
<path d="M8591 4814 c0 -11 -10 -30 -21 -42 -12 -12 -16 -22 -11 -22 17 0 43
47 38 67 -4 15 -5 15 -6 -3z"/>
<path d="M7200 4740 c6 -11 13 -20 16 -20 2 0 0 9 -6 20 -6 11 -13 20 -16 20
-2 0 0 -9 6 -20z"/>
<path d="M7245 4660 c14 -27 28 -50 30 -50 3 0 -6 23 -20 50 -14 28 -28 50
-30 50 -3 0 6 -22 20 -50z"/>
<path d="M7311 4535 c0 -5 6 -21 14 -35 8 -14 14 -20 14 -15 0 6 -6 21 -14 35
-8 14 -14 21 -14 15z"/>
<path d="M6728 4499 c-32 -16 -58 -32 -58 -34 0 -3 14 2 30 10 17 9 35 13 40
10 6 -3 10 0 11 7 0 7 4 3 9 -9 5 -12 28 -34 50 -49 l41 -28 -35 -21 c-26 -16
-33 -24 -25 -32 6 -6 17 -9 23 -7 15 6 21 -68 7 -93 -9 -17 -32 -106 -28 -109
1 0 39 23 85 52 l82 54 0 85 c0 69 -3 88 -18 103 -16 16 -145 93 -154 92 -1
-1 -29 -14 -60 -31z"/>
<path d="M7390 4325 c0 -5 5 -17 10 -25 5 -8 10 -10 10 -5 0 6 -5 17 -10 25
-5 8 -10 11 -10 5z"/>
<path d="M2000 4239 c-7 -11 -10 -23 -7 -25 2 -2 9 7 15 21 14 30 7 33 -8 4z"/>
<path d="M1965 4179 c-4 -6 -5 -12 -2 -15 2 -3 7 2 10 11 7 17 1 20 -8 4z"/>
<path d="M7443 4040 c0 -30 2 -43 4 -27 2 15 2 39 0 55 -2 15 -4 2 -4 -28z"/>
<path d="M7405 3827 c-12 -33 -36 -69 -67 -100 -41 -41 -44 -46 -17 -30 35 20
82 86 100 140 18 56 4 47 -16 -10z"/>
<path d="M5928 3678 c4 -90 -11 -321 -24 -374 -5 -20 -1 -22 87 -29 50 -3 97
-9 104 -11 9 -4 15 30 24 123 6 70 14 151 17 179 l6 52 -70 45 c-39 25 -88 61
-109 80 l-39 35 4 -100z"/>
<path d="M7245 3670 c-13 -6 -15 -9 -5 -9 8 0 22 4 30 9 18 12 2 12 -25 0z"/>
<path d="M5050 3396 c0 -2 8 -10 18 -17 15 -13 16 -12 3 4 -13 16 -21 21 -21
13z"/>
<path d="M5200 3296 c0 -3 9 -10 20 -16 11 -6 20 -8 20 -6 0 3 -9 10 -20 16
-11 6 -20 8 -20 6z"/>
<path d="M3603 3266 c-23 -12 -45 -25 -49 -29 -11 -11 67 23 91 39 28 20 7 15
-42 -10z"/>
<path d="M3670 3280 c0 -11 78 -23 116 -17 24 3 22 4 -11 6 -22 0 -55 5 -73
10 -17 5 -32 6 -32 1z"/>
<path d="M6258 3263 c-10 -2 -18 -8 -18 -12 0 -3 -14 -15 -31 -25 -31 -18 -31
-19 -25 -85 4 -36 3 -87 -2 -112 l-9 -46 76 -18 76 -17 68 38 67 38 0 87 0 87
-65 36 c-61 34 -94 40 -137 29z"/>
<path d="M7715 3200 c-3 -6 1 -7 9 -4 18 7 21 14 7 14 -6 0 -13 -4 -16 -10z"/>
<path d="M7140 3050 c8 -5 20 -10 25 -10 6 0 3 5 -5 10 -8 5 -19 10 -25 10 -5
0 -3 -5 5 -10z"/>
<path d="M3500 3030 c0 -5 5 -10 11 -10 5 0 7 5 4 10 -3 6 -8 10 -11 10 -2 0
-4 -4 -4 -10z"/>
<path d="M7180 3035 c0 -6 29 -18 70 -29 l25 -7 -25 14 c-31 18 -70 30 -70 22z"/>
<path d="M6088 2993 c6 -2 18 -2 25 0 6 3 1 5 -13 5 -14 0 -19 -2 -12 -5z"/>
<path d="M6540 2725 c-9 -11 -8 -22 5 -49 10 -20 21 -36 25 -36 4 0 18 -9 31
-21 l24 -21 -27 -23 c-26 -23 -27 -26 -25 -117 l2 -93 54 32 c30 18 63 35 73
39 17 5 18 16 16 112 l-3 107 -81 42 c-69 36 -84 41 -94 28z"/>
<path d="M3267 2710 c-40 -25 -47 -35 -10 -16 26 13 37 14 57 5 18 -9 23 -16
17 -26 -13 -23 -1 -60 22 -71 21 -10 21 -11 -10 -22 l-32 -11 -3 -90 c-2 -49
-1 -89 1 -89 9 0 120 72 131 85 15 18 14 143 -1 161 -5 7 -40 29 -77 51 -66
38 -69 39 -95 23z"/>
<path d="M3194 2664 c-18 -14 -18 -15 4 -4 12 6 22 13 22 15 0 8 -5 6 -26 -11z"/>
<path d="M6544 1695 c-4 -9 0 -23 9 -32 21 -21 49 -9 45 19 -4 28 -45 38 -54
13z"/>
</g>
</svg>
